<?xml version="1.0" standalone="no"?>
<!DOCTYPE svg PUBLIC "-//W3C//DTD SVG 20010904//EN"
 "http://www.w3.org/TR/2001/REC-SVG-20010904/DTD/svg10.dtd">
<svg version="1.0" xmlns="http://www.w3.org/2000/svg"
 width="512.000000pt" height="512.000000pt" viewBox="0 0 512.000000 512.000000"
 preserveAspectRatio="xMidYMid meet">
<metadata>
Created by potrace 1.10, written by Peter Selinger 2001-2011
</metadata>
<g transform="translate(0.000000,512.000000) scale(0.100000,-0.100000)"
fill="currentColor" stroke="none">
<path d="M2601 4549 c-114 -15 -248 -113 -304 -225 -69 -138 -57 -301 31 -429
15 -22 167 -166 337 -320 l308 -280 -1324 -5 -1324 -5 -52 -21 c-142 -59 -236
-175 -264 -328 -20 -109 13 -234 89 -334 33 -43 111 -99 175 -126 l52 -21
1324 -5 1325 -5 -308 -279 c-170 -154 -321 -297 -337 -319 -63 -87 -93 -227
-69 -328 39 -170 184 -306 348 -329 81 -11 172 3 244 38 65 31 89 50 329 267
190 173 684 617 980 882 304 272 332 315 333 493 0 103 -17 159 -71 241 -14
22 -108 113 -207 202 -100 89 -296 265 -436 392 -307 277 -707 638 -799 718
-89 79 -162 115 -253 125 -40 4 -97 4 -127 1z"/>
</g>
</svg>
